<?xml version="1.0" standalone="no"?>
<!DOCTYPE svg PUBLIC "-//W3C//DTD SVG 20010904//EN"
 "http://www.w3.org/TR/2001/REC-SVG-20010904/DTD/svg10.dtd">
<svg version="1.0" xmlns="http://www.w3.org/2000/svg"
 width="260.000000pt" height="260.000000pt" viewBox="0 0 260.000000 260.000000"
 preserveAspectRatio="xMidYMid meet">
<metadata>
Created by potrace 1.11, written by Peter Selinger 2001-2013
</metadata>
<g transform="translate(0.000000,260.000000) scale(0.100000,-0.100000)"
fill="#000000" stroke="none">
<path d="M1801 2346 c10 -9 69 -36 69 -32 0 6 -55 36 -66 36 -4 0 -5 -2 -3 -4z"/>
<path d="M673 2289 c-35 -22 -46 -37 -15 -20 22 13 58 40 52 41 -3 0 -20 -10
-37 -21z"/>
<path d="M1880 2306 c0 -3 9 -10 20 -16 11 -6 20 -8 20 -6 0 3 -9 10 -20 16
-11 6 -20 8 -20 6z"/>
<path d="M1930 2277 c0 -3 12 -12 26 -22 15 -9 23 -12 20 -6 -7 11 -46 35 -46
28z"/>
<path d="M568 2216 c-31 -25 -59 -50 -63 -57 -6 -9 88 63 120 92 25 24 -6 4
-57 -35z"/>
<path d="M1990 2236 c0 -2 8 -10 18 -17 15 -13 16 -12 3 4 -13 16 -21 21 -21
13z"/>
<path d="M2045 2190 c10 -11 20 -20 23 -20 3 0 -3 9 -13 20 -10 11 -20 20 -23
20 -3 0 3 -9 13 -20z"/>
<path d="M705 2140 c-19 -7 -19 -7 3 -14 35 -11 26 -26 -15 -26 -34 0 -103
-31 -103 -45 0 -4 5 -3 10 0 16 10 111 -5 104 -16 -3 -5 -21 -9 -40 -9 -58 0
-112 -39 -159 -113 -26 -41 -12 -44 34 -7 22 18 45 29 51 25 6 -4 18 -1 26 6
9 7 37 14 62 15 l47 3 -54 -30 c-67 -36 -87 -53 -118 -102 -27 -43 -41 -125
-25 -153 9 -16 14 -11 36 39 14 32 31 57 40 57 8 0 20 16 27 35 8 22 20 35 30
35 10 0 24 9 33 21 17 25 86 74 86 61 0 -5 -9 -17 -21 -28 -12 -10 -32 -38
-46 -62 -22 -38 -25 -52 -21 -110 3 -37 11 -79 19 -92 14 -24 14 -23 17 27 2
29 9 56 17 63 8 7 15 23 15 35 0 13 7 36 15 51 8 16 15 36 15 45 0 8 7 24 15
35 13 17 14 6 15 -106 1 -69 5 -159 10 -200 21 -168 23 -226 9 -212 -10 9 -79
12 -276 12 -198 0 -263 3 -263 12 0 9 -3 9 -12 0 -9 -9 -13 -52 -13 -135 l0
-122 1010 0 1010 0 3 112 3 112 -158 3 c-128 2 -157 6 -155 17 2 11 -6 12 -35
8 -21 -4 -203 -7 -405 -8 -269 0 -368 -4 -371 -12 -10 -27 -22 9 -21 62 1 45
7 70 29 107 69 119 95 170 95 187 0 27 19 20 26 -10 3 -16 10 -38 16 -50 6
-12 8 -29 4 -39 -3 -9 -1 -23 5 -30 8 -9 8 -27 1 -61 -6 -26 -9 -49 -7 -51 17
-17 62 71 66 128 3 44 -9 98 -27 128 -18 27 -4 29 21 2 10 -11 24 -20 31 -20
8 0 20 -13 29 -30 9 -16 20 -30 26 -30 5 0 19 -21 30 -47 14 -33 23 -43 31
-35 8 8 7 29 -2 78 -16 85 -57 135 -132 160 -43 14 -48 18 -33 27 23 13 122
11 158 -2 16 -6 27 -7 27 -1 0 17 -68 61 -104 67 -36 6 -40 23 -5 23 32 0 21
17 -15 24 -43 8 -85 -7 -113 -41 -21 -25 -22 -26 -28 -8 -4 11 -10 27 -14 35
-10 20 -70 60 -89 60 -13 0 -12 -4 4 -22 24 -28 57 -88 52 -93 -2 -3 -23 5
-47 17 -39 19 -48 20 -93 9 -45 -12 -51 -12 -71 7 -12 11 -38 28 -57 38 l-35
17 33 9 c19 5 39 5 50 -1 11 -6 28 -7 40 -4 13 3 33 -2 48 -12 43 -28 42 -6
-2 35 -57 53 -109 67 -168 48 -25 -8 -46 -13 -46 -11 0 13 27 51 58 80 25 24
30 33 18 33 -34 0 -86 -30 -105 -60 l-19 -32 -18 30 c-25 43 -79 66 -119 52z
m288 -290 c3 -12 14 -24 25 -27 11 -2 28 -22 37 -44 25 -55 39 -50 32 14 -7
52 -6 52 21 51 15 0 34 -3 42 -7 8 -3 27 -8 43 -11 35 -8 34 -20 -1 -35 -70
-29 -121 -111 -122 -193 0 -54 15 -64 25 -17 7 31 23 52 109 141 91 93 63 14
-43 -127 -58 -76 -91 -145 -91 -189 0 -19 -6 -21 -55 -22 l-54 0 -26 58 c-31
69 -50 159 -68 321 -13 115 -7 157 13 100 6 -15 14 -37 19 -48 20 -49 31 -95
31 -134 0 -51 18 -51 36 0 22 59 17 127 -12 176 l-26 44 30 -15 c16 -8 32 -25
35 -36z"/>
<path d="M2130 2115 c19 -19 36 -35 39 -35 3 0 -10 16 -29 35 -19 19 -36 35
-39 35 -3 0 10 -16 29 -35z"/>
<path d="M444 2108 l-29 -33 33 29 c30 28 37 36 29 36 -2 0 -16 -15 -33 -32z"/>
<path d="M1930 2113 c1 -4 15 -17 33 -28 18 -11 36 -30 42 -43 10 -23 39 -30
50 -12 3 6 2 10 -3 10 -5 0 -27 14 -48 31 -46 37 -74 53 -74 42z"/>
<path d="M389 2043 c-43 -48 -62 -73 -57 -73 3 0 24 23 47 50 45 53 52 69 10
23z"/>
<path d="M1620 2050 c6 -11 23 -27 38 -35 15 -8 42 -28 61 -44 30 -27 33 -32
20 -47 -12 -15 -10 -16 31 -9 25 4 81 7 124 6 111 -1 86 21 -28 27 -78 4 -88
7 -123 36 -46 39 -115 86 -126 86 -4 0 -3 -9 3 -20z"/>
<path d="M2205 2030 c10 -11 20 -20 23 -20 3 0 -3 9 -13 20 -10 11 -20 20 -23
20 -3 0 3 -9 13 -20z"/>
<path d="M2230 1996 c0 -2 8 -10 18 -17 15 -13 16 -12 3 4 -13 16 -21 21 -21
13z"/>
<path d="M313 1948 c-15 -20 -25 -38 -20 -38 3 0 12 11 21 25 17 26 16 35 -1
13z"/>
<path d="M2260 1956 c0 -2 8 -10 18 -17 15 -13 16 -12 3 4 -13 16 -21 21 -21
13z"/>
<path d="M2300 1900 c6 -11 13 -20 16 -20 2 0 0 9 -6 20 -6 11 -13 20 -16 20
-2 0 0 -9 6 -20z"/>
<path d="M268 1878 c-23 -35 -60 -110 -56 -113 2 -2 20 28 40 66 37 68 44 90
16 47z"/>
<path d="M2330 1850 c6 -11 13 -20 16 -20 2 0 0 9 -6 20 -6 11 -13 20 -16 20
-2 0 0 -9 6 -20z"/>
<path d="M1800 1852 c0 -5 14 -18 30 -30 17 -13 30 -29 30 -37 0 -16 18 -19
37 -7 9 5 -5 20 -42 45 -30 20 -55 33 -55 29z"/>
<path d="M2351 1815 c0 -5 8 -26 19 -45 11 -19 19 -30 19 -25 0 6 -8 26 -19
45 -11 19 -19 31 -19 25z"/>
<path d="M1943 1783 c9 -2 23 -2 30 0 6 3 -1 5 -18 5 -16 0 -22 -2 -12 -5z"/>
<path d="M270 1092 c0 -4 23 -25 51 -46 45 -33 50 -41 45 -64 -15 -61 -28 -57
184 -57 244 0 283 -15 84 -31 -156 -13 -254 -30 -254 -45 0 -5 93 -9 224 -9
210 0 257 -6 224 -27 -7 -4 -85 -11 -174 -14 -119 -5 -168 -11 -192 -23 -18
-9 -32 -21 -32 -26 0 -18 72 -22 146 -10 90 16 248 8 319 -15 47 -15 164 -30
153 -20 -2 2 -29 8 -59 12 -37 6 -54 13 -54 23 0 24 31 24 193 -1 142 -21 160
-22 280 -10 71 7 139 10 153 7 44 -10 139 -14 139 -6 0 4 40 5 89 2 77 -4 102
-1 173 21 46 14 113 28 150 32 l67 6 -6 32 c-4 29 -1 34 29 49 l33 16 -38 7
c-20 4 -68 5 -105 1 -190 -17 -222 -18 -271 -6 -28 6 -51 15 -51 19 0 4 53 8
118 8 98 0 126 3 176 23 33 12 79 22 104 22 35 -1 43 1 34 10 -20 20 -133 22
-195 4 -69 -20 -157 -21 -202 -2 -53 22 -42 32 29 28 48 -3 78 1 121 17 46 17
76 21 163 20 79 -1 117 2 145 14 96 41 80 42 -981 45 -557 1 -1012 -1 -1012
-6z m1290 -37 c36 -8 86 -14 113 -15 49 0 60 -12 28 -30 -27 -14 -95 -13 -198
4 -49 8 -97 14 -108 13 -35 -3 -31 18 5 30 46 16 82 15 160 -2z m-292 -53 c12
-7 22 -14 22 -15 0 -1 -69 -2 -152 -2 -111 0 -175 -5 -233 -18 -51 -12 -98
-16 -130 -13 -27 4 -102 11 -167 16 -120 10 -148 16 -148 31 0 11 91 14 465
14 240 0 326 -4 343 -13z m406 -80 c-1 -4 -13 -16 -28 -26 -39 -30 -118 -31
-246 -6 -106 21 -150 22 -229 3 -34 -8 -18 15 23 33 25 11 76 13 256 9 124 -3
224 -9 224 -13z m-359 -85 c63 -16 91 -28 93 -40 6 -29 -60 -32 -194 -7 -122
22 -247 24 -326 4 -38 -9 -36 11 2 31 98 51 260 55 425 12z m732 -4 c3 -7 -8
-15 -24 -18 -15 -3 -54 -13 -85 -22 -42 -12 -76 -14 -133 -9 -87 8 -107 14
-102 30 2 7 49 13 126 17 67 4 125 10 129 13 11 11 85 2 89 -11z"/>
<path d="M2347 725 c-9 -19 -15 -35 -12 -35 7 0 37 61 33 66 -3 2 -12 -12 -21
-31z"/>
<path d="M2310 660 c-6 -11 -8 -20 -6 -20 3 0 10 9 16 20 6 11 8 20 6 20 -3 0
-10 -9 -16 -20z"/>
<path d="M1798 663 c7 -3 16 -2 19 1 4 3 -2 6 -13 5 -11 0 -14 -3 -6 -6z"/>
<path d="M290 630 c6 -11 13 -20 16 -20 2 0 0 9 -6 20 -6 11 -13 20 -16 20 -2
0 0 -9 6 -20z"/>
<path d="M2275 604 c-9 -15 -12 -23 -6 -20 11 7 35 46 28 46 -3 0 -12 -12 -22
-26z"/>
<path d="M330 570 c11 -16 26 -33 32 -36 7 -4 -1 9 -16 29 -34 44 -46 50 -16
7z"/>
<path d="M2239 553 c-13 -16 -12 -17 4 -4 16 13 21 21 13 21 -2 0 -10 -8 -17
-17z"/>
<path d="M2194 498 c-74 -82 -87 -98 -82 -98 3 0 31 29 63 65 58 66 73 92 19
33z"/>
<path d="M405 480 c21 -22 41 -40 44 -40 3 0 -13 18 -34 40 -21 22 -41 40 -44
40 -3 0 13 -18 34 -40z"/>
<path d="M500 388 c24 -27 45 -48 47 -48 8 0 0 9 -44 50 l-48 45 45 -47z"/>
<path d="M2064 368 l-29 -33 33 29 c17 17 32 31 32 33 0 8 -8 1 -36 -29z"/>
<path d="M585 315 c30 -26 65 -49 65 -42 0 2 -21 18 -47 36 -36 25 -41 26 -18
6z"/>
<path d="M2009 323 c-13 -16 -12 -17 4 -4 16 13 21 21 13 21 -2 0 -10 -8 -17
-17z"/>
<path d="M1969 293 c-13 -16 -12 -17 4 -4 16 13 21 21 13 21 -2 0 -10 -8 -17
-17z"/>
<path d="M675 254 c24 -19 116 -67 120 -62 2 2 -29 20 -68 41 -40 20 -63 30
-52 21z"/>
<path d="M1868 234 c-38 -20 -36 -28 2 -9 17 9 30 18 30 20 0 7 -1 6 -32 -11z"/>
<path d="M1780 190 c-8 -5 -10 -10 -5 -10 6 0 17 5 25 10 8 5 11 10 5 10 -5 0
-17 -5 -25 -10z"/>
<path d="M1188 83 c6 -2 18 -2 25 0 6 3 1 5 -13 5 -14 0 -19 -2 -12 -5z"/>
<path d="M1388 83 c7 -3 16 -2 19 1 4 3 -2 6 -13 5 -11 0 -14 -3 -6 -6z"/>
</g>
</svg>
